<?xml version="1.0" encoding="utf-8"?>
<!-- Generator: Adobe Illustrator 24.0.1, SVG Export Plug-In . SVG Version: 6.00 Build 0)  -->
<svg version="1.1" id="Calque_1" xmlns="http://www.w3.org/2000/svg" xmlns:xlink="http://www.w3.org/1999/xlink" x="0px" y="0px"
	 viewBox="0 0 294.95 208.85" style="enable-background:new 0 0 294.95 208.85;" xml:space="preserve">
<style type="text/css">
	.st0{fill:#FFFFFF;stroke:#123D5E;stroke-width:10;stroke-miterlimit:10;}
</style>
<path class="st0" d="M111.69,154.55l-55.04,18.96c-21.32,6.92-20.58,30.58,2.44,30.34c11.79-0.12,58.79-23.59,94.75-32.04
	c36.75-8.64,63.18-13.41,92.64-17.05c0,0,45.5-5.13,43.41-45.7c-2.21-42.92-43.41-40.33-43.41-40.33
	c-88.37,3.95-69.71-76.15-99.42-62.07c-21,9.95,1.73,76.53,1.73,76.53l-1.3,0.42l-9.71-14.58c-13.54,4.06-49.08,14.43-104.25,28.54
	c-30.19,7.72-33.76,46.63,21.85,31.17l46.81-11.68l0.54,2.47c-19.31,5.16-70.51,17.71-82.86,23.92
	c-24.22,12.17-18.65,43.88,15.48,33.22c23.5-7.34,60.47-19.69,75.26-24.39L111.69,154.55z"/>
</svg>
