<?xml version="1.0" encoding="utf-8"?>
<!-- Generator: Adobe Illustrator 24.0.1, SVG Export Plug-In . SVG Version: 6.00 Build 0)  -->
<svg version="1.1" id="Calque_1" xmlns="http://www.w3.org/2000/svg" xmlns:xlink="http://www.w3.org/1999/xlink" x="0px" y="0px"
	 viewBox="0 0 294.95 219.11" style="enable-background:new 0 0 294.95 219.11;" xml:space="preserve">
<style type="text/css">
	.st0{fill:#FFFFFF;stroke:#123D5E;stroke-width:10;stroke-miterlimit:10;}
</style>
<path class="st0" d="M183.27,164.81l55.04,18.96c21.32,6.92,20.58,30.58-2.44,30.34c-11.79-0.12-58.79-23.59-94.75-32.04
	c-36.75-8.64-63.18-13.41-92.64-17.05c0,0-45.5-5.13-43.41-45.7C7.28,76.4,48.48,78.99,48.48,78.99
	c88.37,3.95,71.13-86.58,100.85-72.51c21,9.95,5.93,69.35,5.93,69.35l-12.39,0.41l-0.74,2.67c13.54,4.06,64.14,14.79,119.31,28.9
	c30.19,7.72,33.76,46.63-21.85,31.17l-46.81-11.68l-0.54,2.47c19.31,5.16,70.51,17.71,82.86,23.92
	c24.22,12.17,18.65,43.88-15.48,33.22c-23.5-7.34-60.47-19.69-75.26-24.39L183.27,164.81z"/>
</svg>
